<?xml version="1.0" encoding="utf-8"?>
<!-- Generator: Adobe Illustrator 21.1.0, SVG Export Plug-In . SVG Version: 6.00 Build 0)  -->
<svg version="1.1" id="Layer_1" xmlns="http://www.w3.org/2000/svg" xmlns:xlink="http://www.w3.org/1999/xlink" x="0px" y="0px"
	 viewBox="0 0 1920 1080" style="enable-background:new 0 0 1920 1080;" xml:space="preserve">
<style type="text/css">
	.st0{fill:#FF7054;}
	.st1{clip-path:url(#SVGID_2_);}
	.st2{fill:#50C9D1;}
	.st3{fill:#265673;}
	.st4{fill:#FF8D76;}
</style>
<path class="st0" d="M1987.9,0H-23c0,0-5.4,630.8,0,642.7v3.9h1.8C6.7,705.1,56.1,745.3,82,765.7c114,90,228.8,118.1,349.3,130.8
	c144.7,15.2,268.7,9.2,500.5-24.9c0,0,247.9-49.6,345.3-3.9c14.5,6.8,22.3,18.3,22.3,18.3c5.9,8.6,9,19.5,9,32.8v17.3
	c0,1.7,0,7.2,0,8.3c0,9.5,2.2,18.5,6.1,26.6c4.1,9.6,10,16.6,17.3,21.5c10.4,8.2,23.5,13.1,37.8,13.1c13.6,0,26.1-4.4,36.2-11.9
	c15.8-9.8,25.8-28.3,25.8-57.6c0-56.1-17.7-99.4,66.6-115.9c131.6-25.8,258.5-36.9,339.7-68.6c41-16,96-48.2,150-120V0z"/>
<g>
	<defs>
		<path id="SVGID_1_" d="M1987.9,0H-23c0,0-5.4,630.8,0,642.7v3.9h1.8C6.7,705.1,56.1,745.3,82,765.7
			c114,90,228.8,118.1,349.3,130.8c144.7,15.2,268.7,9.2,500.5-24.9c0,0,247.9-49.6,345.3-3.9c14.5,6.8,22.3,18.3,22.3,18.3
			c5.9,8.6,9,19.5,9,32.8v17.3c0,1.7,0,7.2,0,8.3c0,9.5,2.2,18.5,6.1,26.6c4.1,9.6,10,16.6,17.3,21.5c10.4,8.2,23.5,13.1,37.8,13.1
			c13.6,0,26.1-4.4,36.2-11.9c15.8-9.8,25.8-28.3,25.8-57.6c0-56.1-17.7-99.4,66.6-115.9c131.6-25.8,258.5-36.9,339.7-68.6
			c41-16,96-48.2,150-120V0z"/>
	</defs>
	<clipPath id="SVGID_2_">
		<use xlink:href="#SVGID_1_"  style="overflow:visible;"/>
	</clipPath>
	<g class="st1">
		<path class="st2" d="M536,365.2L536,365.2c12.1,0,21.9,9.8,21.9,21.9v94.2c0,12.1-9.8,21.9-21.9,21.9l0,0
			c-12.1,0-21.9-9.8-21.9-21.9v-94.2C514.1,375,523.9,365.2,536,365.2z"/>
		<path class="st2" d="M227.9,532.1L227.9,532.1c12.1,0,21.9,9.8,21.9,21.9v94.2c0,12.1-9.8,21.9-21.9,21.9l0,0
			c-12.1,0-21.9-9.8-21.9-21.9V554C206,541.9,215.8,532.1,227.9,532.1z"/>
		<path class="st3" d="M1077,120.2L1077,120.2c9.2,7.9,10.3,21.7,2.4,30.9l-61.3,71.6c-7.9,9.2-21.7,10.3-30.9,2.4l0,0
			c-9.2-7.9-10.3-21.7-2.4-30.9l61.3-71.6C1054,113.4,1067.8,112.3,1077,120.2z"/>
		<path class="st4" d="M1844.2,683.9L1844.2,683.9c8.6,8.6,8.6,22.4,0,31l-66.6,66.6c-8.6,8.6-22.4,8.6-31,0l0,0
			c-8.6-8.6-8.6-22.4,0-31l66.6-66.6C1821.8,675.4,1835.7,675.4,1844.2,683.9z"/>
		<path class="st4" d="M994,434.1L994,434.1c8.6,8.6,8.6,22.4,0,31l-66.6,66.6c-8.6,8.6-22.4,8.6-31,0l0,0c-8.6-8.6-8.6-22.4,0-31
			l66.6-66.6C971.5,425.6,985.4,425.6,994,434.1z"/>
		<path class="st4" d="M374.3,236L374.3,236c8.6,8.6,8.6,22.4,0,31l-66.6,66.6c-8.6,8.6-22.4,8.6-31,0l0,0c-8.6-8.6-8.6-22.4,0-31
			l66.6-66.6C351.8,227.4,365.7,227.4,374.3,236z"/>
		<path class="st2" d="M670.2,904.7L670.2,904.7c11.3-4.4,24,1.1,28.4,12.4l34.6,87.7c4.4,11.3-1.1,24-12.4,28.4l0,0
			c-11.3,4.4-24-1.1-28.4-12.4l-34.6-87.7C653.4,921.8,658.9,909.1,670.2,904.7z"/>
		<path class="st2" d="M1320.2-14.1L1320.2-14.1c6,10.5,2.3,23.9-8.2,29.9L1230,62.3c-10.5,6-23.9,2.3-29.9-8.2l0,0
			c-6-10.5-2.3-23.9,8.2-29.9l81.9-46.6C1300.8-28.3,1314.2-24.6,1320.2-14.1z"/>
		<path class="st4" d="M487.2,709.4L487.2,709.4c10.5,6,14.2,19.3,8.2,29.9l-46.5,82c-6,10.5-19.3,14.2-29.9,8.2l0,0
			c-10.5-6-14.2-19.3-8.2-29.9l46.5-82C463.3,707.1,476.7,703.4,487.2,709.4z"/>
		<path class="st2" d="M1743,257.9L1743,257.9c0,12.1-9.8,21.9-21.9,21.9h-94.2c-12.1,0-21.9-9.8-21.9-21.9l0,0
			c0-12.1,9.8-21.9,21.9-21.9h94.2C1733.2,236,1743,245.8,1743,257.9z"/>
		<path class="st2" d="M1376,194.6L1376,194.6c12.1,0,21.9,9.8,21.9,21.9v94.2c0,12.1-9.8,21.9-21.9,21.9l0,0
			c-12.1,0-21.9-9.8-21.9-21.9v-94.2C1354.1,204.4,1363.9,194.6,1376,194.6z"/>
		<path class="st4" d="M2056.1,528L2056.1,528c12.1,0,21.9,9.8,21.9,21.9v94.2c0,12.1-9.8,21.9-21.9,21.9l0,0
			c-12.1,0-21.9-9.8-21.9-21.9V550C2034.2,537.9,2044,528,2056.1,528z"/>
		<path class="st4" d="M702,46.2L702,46.2c11.6-3.4,23.8,3.3,27.1,14.9l26.2,90.5c3.4,11.6-3.3,23.8-14.9,27.1l0,0
			c-11.6,3.4-23.8-3.3-27.1-14.9L687,73.4C683.7,61.8,690.4,49.6,702,46.2z"/>
		<path class="st4" d="M1313.3,464.8L1313.3,464.8c6.7-10.1,20.3-12.9,30.4-6.2l78.7,51.9c10.1,6.7,12.9,20.3,6.2,30.4l0,0
			c-6.7,10.1-20.3,12.9-30.4,6.2l-78.7-51.9C1309.4,488.5,1306.6,474.9,1313.3,464.8z"/>
		<path class="st4" d="M113.3,208.6L113.3,208.6c12-1.5,23,7,24.5,19l11.9,93.5c1.5,12-7,23-19,24.5l0,0c-12,1.5-23-7-24.5-19
			l-11.9-93.5C92.8,221.1,101.3,210.2,113.3,208.6z"/>
		<path class="st3" d="M944.2,756.5L944.2,756.5c6.4,10.2,3.4,23.8-6.9,30.2l-79.8,50.2c-10.2,6.4-23.8,3.4-30.2-6.9l0,0
			c-6.4-10.2-3.4-23.8,6.9-30.2l79.8-50.2C924.2,743.2,937.7,746.2,944.2,756.5z"/>
		<path class="st4" d="M-116.9,262.5L-116.9,262.5c0,12.1-9.8,21.9-21.9,21.9H-233c-12.1,0-21.9-9.8-21.9-21.9l0,0
			c0-12.1,9.8-21.9,21.9-21.9h94.2C-126.7,240.6-116.9,250.4-116.9,262.5z"/>
		<path class="st4" d="M1860.3,505.3L1860.3,505.3c0,12.1-9.8,21.9-21.9,21.9h-94.2c-12.1,0-21.9-9.8-21.9-21.9l0,0
			c0-12.1,9.8-21.9,21.9-21.9h94.2C1850.5,483.4,1860.3,493.2,1860.3,505.3z"/>
		<path class="st4" d="M32.9,510.7L32.9,510.7c-4.1,11.4-16.7,17.3-28,13.2l-88.6-32c-11.4-4.1-17.3-16.7-13.2-28l0,0
			c4.1-11.4,16.7-17.3,28-13.2l88.6,32C31.1,486.8,37,499.4,32.9,510.7z"/>
		<path class="st4" d="M133.2,823.6L133.2,823.6c-0.6-12.1,8.6-22.4,20.7-23l94.1-5c12.1-0.6,22.4,8.6,23,20.7l0,0
			c0.6,12.1-8.6,22.4-20.7,23l-94.1,5C144.1,845,133.8,835.7,133.2,823.6z"/>
		<path class="st3" d="M-0.9,5.2L-0.9,5.2c4.3-11.3,17-16.9,28.3-12.6l87.9,33.8c11.3,4.3,16.9,17,12.6,28.3l0,0
			c-4.3,11.3-17,16.9-28.3,12.6L11.7,33.5C0.4,29.1-5.3,16.5-0.9,5.2z"/>
		<path class="st2" d="M2015.7-123.9L2015.7-123.9c12.1,0,21.9,9.8,21.9,21.9v94.2c0,12.1-9.8,21.9-21.9,21.9l0,0
			c-12.1,0-21.9-9.8-21.9-21.9V-102C1993.8-114.1,2003.6-123.9,2015.7-123.9z"/>
		<path class="st2" d="M1214.4,720.7L1214.4,720.7c12.1,0,21.9,9.8,21.9,21.9v94.2c0,12.1-9.8,21.9-21.9,21.9l0,0
			c-12.1,0-21.9-9.8-21.9-21.9v-94.2C1192.5,730.6,1202.3,720.7,1214.4,720.7z"/>
		<path class="st4" d="M1581.5-13.6L1581.5-13.6c8.6-8.6,22.4-8.6,31,0l66.6,66.6c8.6,8.6,8.6,22.4,0,31l0,0c-8.6,8.6-22.4,8.6-31,0
			l-66.6-66.6C1572.9,8.8,1572.9-5,1581.5-13.6z"/>
		<path class="st4" d="M794.8-145.7L794.8-145.7c8.6-8.6,22.4-8.6,31,0l66.6,66.6c8.6,8.6,8.6,22.4,0,31l0,0c-8.6,8.6-22.4,8.6-31,0
			l-66.6-66.6C786.3-123.3,786.3-137.1,794.8-145.7z"/>
		<path class="st4" d="M1578.1,646.7L1578.1,646.7c10.5,6,14.2,19.3,8.2,29.9l-46.5,82c-6,10.5-19.3,14.2-29.9,8.2l0,0
			c-10.5-6-14.2-19.3-8.2-29.9l46.5-82C1554.2,644.4,1567.6,640.7,1578.1,646.7z"/>
		<path class="st4" d="M397.7,35.5L397.7,35.5c-11.8,2.7-23.5-4.8-26.2-16.6L350.8-73c-2.7-11.8,4.8-23.5,16.6-26.2l0,0
			c11.8-2.7,23.5,4.8,26.2,16.6l20.7,91.9C416.9,21.1,409.5,32.8,397.7,35.5z"/>
		<path class="st3" d="M-18.9,764.9L-18.9,764.9c8.6,8.6,8.6,22.4,0,31l-66.6,66.6c-8.6,8.6-22.4,8.6-31,0l0,0
			c-8.6-8.6-8.6-22.4,0-31l66.6-66.6C-41.3,756.3-27.4,756.3-18.9,764.9z"/>
		<path class="st3" d="M2030.9,208.5L2030.9,208.5c8.6,8.6,8.6,22.4,0,31l-66.6,66.6c-8.6,8.6-22.4,8.6-31,0l0,0
			c-8.6-8.6-8.6-22.4,0-31l66.6-66.6C2008.5,199.9,2022.4,199.9,2030.9,208.5z"/>
	</g>
</g>
</svg>
